<svg id="Capa_1" enable-background="new 0 0 512 512" height="512" viewBox="0 0 512 512" width="512" xmlns="http://www.w3.org/2000/svg" xmlns:xlink="http://www.w3.org/1999/xlink"><linearGradient id="SVGID_1_" gradientUnits="userSpaceOnUse" x1="256" x2="256" y1="512" y2="0"><stop offset="0" stop-color="#fd3a84"/><stop offset="1" stop-color="#ffa68d"/></linearGradient><linearGradient id="SVGID_2_" gradientUnits="userSpaceOnUse" x1="256" x2="256" y1="451" y2="61"><stop offset="0" stop-color="#ffc2cc"/><stop offset="1" stop-color="#fff2f4"/></linearGradient><g><g><g><path d="m376 0h-240c-24.813 0-45 20.187-45 45v422c0 24.813 20.187 45 45 45h240c24.813 0 45-20.187 45-45v-422c0-24.813-20.187-45-45-45z" fill="url(#SVGID_1_)"/></g></g><g><g><path d="m241 91h30c8.284 0 15-6.716 15-15s-6.716-15-15-15h-30c-8.284 0-15 6.716-15 15s6.716 15 15 15zm30 330h-30c-8.284 0-15 6.716-15 15s6.716 15 15 15h30c8.284 0 15-6.716 15-15s-6.716-15-15-15zm-105-180c8.284 0 15-6.716 15-15 0-41.355 33.645-75 75-75s75 33.645 75 75c0 8.284 6.716 15 15 15s15-6.716 15-15c0-57.897-47.103-105-105-105s-105 47.103-105 105c0 8.284 6.716 15 15 15zm180 30c-8.284 0-15 6.716-15 15 0 41.355-33.645 75-75 75s-75-33.645-75-75c0-8.284-6.716-15-15-15s-15 6.716-15 15c0 57.897 47.103 105 105 105s105-47.103 105-105c0-8.284-6.716-15-15-15zm-105-15v-30c0-8.271 6.729-15 15-15 4.006 0 7.773 1.56 10.607 4.394 5.858 5.857 15.355 5.857 21.213 0 5.857-5.858 5.857-15.355 0-21.213-8.5-8.499-19.8-13.18-31.82-13.18-24.813 0-45 20.187-45 45v30c0 8.284 6.716 15 15 15s15-6.717 15-15.001zm15 75c24.813 0 45-20.187 45-45v-30c0-8.284-6.716-15-15-15s-15 6.716-15 15v30c0 8.271-6.729 15-15 15-4.006 0-7.773-1.56-10.607-4.394-5.858-5.857-15.355-5.857-21.213 0-5.857 5.858-5.857 15.355 0 21.213 8.5 8.5 19.8 13.181 31.82 13.181z" fill="url(#SVGID_2_)"/></g></g></g></svg>