<svg id="Capa_1" enable-background="new 0 0 512 512" height="512" viewBox="0 0 512 512" width="512" xmlns="http://www.w3.org/2000/svg" xmlns:xlink="http://www.w3.org/1999/xlink"><linearGradient id="SVGID_1_" gradientUnits="userSpaceOnUse" x1="256" x2="256" y1="512" y2="0"><stop offset="0" stop-color="#ffedad"/><stop offset="1" stop-color="#ffffe5"/></linearGradient><linearGradient id="SVGID_2_" gradientUnits="userSpaceOnUse" x1="256" x2="256" y1="407" y2="109"><stop offset="0" stop-color="#feba00"/><stop offset="1" stop-color="#fd5900"/></linearGradient><g><g><circle cx="256" cy="256" fill="url(#SVGID_1_)" r="256"/></g><g><g><path d="m253.824 196.647c24.134 0 43.772-19.661 43.772-43.824s-19.637-43.823-43.772-43.823-43.772 19.661-43.772 43.823c0 24.163 19.638 43.824 43.772 43.824zm109.404 17.529-2.351.068c-4.83.257-7.831 4.374-7.566 9.21.257 4.665 4.771 8.268 9.43 8.268 14.32.197 26.75 11.615 26.75 26.277 0 5.455-1.671 10.524-4.552 14.729 2.12 6.564 3.481 13.407 4.099 20.481 10.834-7.983 17.962-20.737 17.962-35.209 0-24.163-19.637-43.824-43.772-43.824zm-23.852 28.152c-27.725-23.564-73.506-34.691-118.372-29.025-10.233-20.713-31.401-34.186-54.723-34.186-4.839 0-8.754 3.92-8.754 8.765v48.317c-11.917 8.457-20.928 18.702-26.862 30.565h-16.91c-4.839 0-8.754 3.92-8.754 8.765v52.588c0 4.845 3.916 8.765 8.754 8.765h17.244c5.933 11.392 14.824 21.338 26.528 29.667v31.686c0 4.845 3.916 8.765 8.754 8.765h35.017c4.839 0 8.754-3.92 8.754-8.765v-10.065c22.784 4.613 47.345 4.759 70.035.445v9.621c0 4.845 3.916 8.765 8.754 8.765h35.018c4.839 0 8.754-3.92 8.754-8.765v-30.788c22.938-16.245 35.018-38.833 35.018-65.624 0-23.213-9.772-43.79-28.255-59.496zm-155.587 41.966c-4.835 0-8.754-3.924-8.754-8.765s3.92-8.765 8.754-8.765 8.754 3.924 8.754 8.765-3.919 8.765-8.754 8.765zm113.277-17.812c-1.3 3.552-4.651 5.752-8.224 5.752-5.766 0-26.765-12.483-68.616-5.641-4.787.907-9.267-2.448-10.054-7.224s2.445-9.287 7.215-10.066c26.648-4.391 51.714-2.388 74.463 5.932 4.541 1.669 6.874 6.702 5.216 11.247z" fill="url(#SVGID_2_)"/></g></g></g></svg>